<?xml version="1.0" ?><svg data-name="Layer 1" id="Layer_1" viewBox="0 0 64 64" xmlns="http://www.w3.org/2000/svg"><path d="M38,21c-2.76,0-5,2.24-5,5h2c0-1.65,1.35-3,3-3s3,1.35,3,3-1.35,3-3,3v2c2.76,0,5-2.24,5-5s-2.24-5-5-5Z"/><path d="M32,37v2c1.1,0,2,.9,2,2s-.9,2-2,2-2-.9-2-2h-2c0,2.21,1.79,4,4,4s4-1.79,4-4-1.79-4-4-4Z"/><path d="M24,33c-.55,0-1-.45-1-1s.45-1,1-1v-2c-1.65,0-3,1.35-3,3s1.35,3,3,3,3-1.35,3-3h-2c0,.55-.45,1-1,1Z"/><path d="M38.5,26.87c.48-.28,.64-.89,.37-1.37-.28-.48-.89-.64-1.37-.37-.48,.28-.64,.89-.37,1.37,.28,.48,.89,.64,1.37,.37Z"/><path d="M32.5,41.87c.48-.28,.64-.89,.37-1.37-.28-.48-.89-.64-1.37-.37-.48,.28-.64,.89-.37,1.37,.28,.48,.89,.64,1.37,.37Z"/><path d="M59,28c-1.39,0-2.64,.7-3.36,1.84l-4.84-.54c-.23-1.57-.65-3.09-1.26-4.56l2.8-1.26c1.49,.73,3.23,.68,4.68-.15,1.16-.67,1.98-1.75,2.33-3.04s.17-2.64-.5-3.79c-1.38-2.39-4.44-3.21-6.83-1.83-1.44,.83-2.36,2.32-2.47,3.98l-2.48,1.78c-.96-1.25-2.08-2.38-3.33-3.36l1.96-4.46c1.35-.06,2.58-.79,3.28-1.99,.53-.92,.68-2,.4-3.04-.28-1.03-.94-1.89-1.86-2.43-1.91-1.1-4.36-.45-5.46,1.46-.69,1.2-.71,2.64-.09,3.83l-2.89,3.92c-1.47-.59-3-.99-4.58-1.2l.31-3.05c1.37-.93,2.21-2.46,2.21-4.13,0-2.76-2.24-5-5-5s-5,2.24-5,5c0,1.67,.83,3.2,2.21,4.13l.31,3.05c-1.57,.21-3.1,.61-4.58,1.2l-2.89-3.92c.62-1.2,.61-2.63-.09-3.83-1.1-1.91-3.55-2.57-5.46-1.46-.93,.53-1.59,1.4-1.86,2.43-.28,1.03-.13,2.11,.4,3.04,.69,1.2,1.93,1.93,3.28,1.99l1.96,4.46c-1.25,.98-2.37,2.11-3.33,3.36l-2.48-1.78c-.11-1.65-1.03-3.14-2.47-3.98-2.39-1.38-5.45-.56-6.83,1.83-.67,1.16-.84,2.5-.5,3.79s1.17,2.37,2.33,3.04c1.44,.83,3.19,.88,4.68,.15l2.8,1.26c-.61,1.47-1.03,2.99-1.26,4.56l-4.84,.54c-.72-1.14-1.98-1.84-3.36-1.84-2.21,0-4,1.79-4,4s1.79,4,4,4c1.39,0,2.64-.7,3.36-1.84l4.84,.54c.23,1.57,.65,3.09,1.26,4.56l-2.8,1.26c-1.49-.73-3.23-.68-4.68,.15-1.16,.67-1.98,1.75-2.33,3.04s-.17,2.64,.5,3.79c1.38,2.39,4.44,3.21,6.83,1.83,1.44-.83,2.36-2.32,2.47-3.98l2.48-1.78c.96,1.25,2.08,2.38,3.33,3.36l-1.96,4.46c-1.35,.06-2.58,.79-3.28,1.99-.53,.92-.68,2-.4,3.04,.28,1.03,.94,1.89,1.86,2.43,1.91,1.1,4.36,.44,5.46-1.46,.69-1.2,.71-2.64,.09-3.83l2.89-3.92c1.47,.59,3,.99,4.58,1.2l-.31,3.05c-1.37,.93-2.21,2.46-2.21,4.13,0,2.76,2.24,5,5,5s5-2.24,5-5c0-1.67-.83-3.2-2.21-4.13l-.31-3.05c1.57-.21,3.1-.61,4.58-1.2l2.89,3.92c-.62,1.2-.61,2.63,.09,3.83,1.1,1.91,3.55,2.57,5.46,1.46,.93-.53,1.59-1.4,1.86-2.43,.28-1.03,.13-2.11-.4-3.04-.69-1.2-1.93-1.93-3.28-1.99l-1.96-4.46c1.25-.98,2.37-2.11,3.33-3.36l2.48,1.78c.11,1.65,1.03,3.14,2.47,3.98,2.38,1.38,5.45,.56,6.83-1.83,.67-1.16,.84-2.5,.5-3.79s-1.17-2.37-2.33-3.04c-1.44-.83-3.19-.88-4.68-.15l-2.8-1.26c.61-1.47,1.03-2.99,1.26-4.56l4.84-.54c.72,1.14,1.98,1.84,3.36,1.84,2.21,0,4-1.79,4-4s-1.79-4-4-4Zm0,6c-.83,0-1.55-.5-1.86-1.28-.17-.42-.59-.68-1.04-.63l-6.31,.7c-.47,.05-.84,.42-.88,.89-.2,1.96-.73,3.85-1.59,5.64-.12,.24-.13,.52-.04,.77s.28,.46,.53,.57l4.16,1.88c.31,.14,.66,.11,.95-.07,.95-.6,2.14-.63,3.1-.08,1.43,.83,1.93,2.67,1.1,4.1-.4,.69-1.05,1.19-1.82,1.4-.77,.21-1.58,.1-2.28-.3-.96-.55-1.52-1.6-1.48-2.72,.01-.34-.14-.66-.42-.85l-3.7-2.66c-.22-.16-.49-.22-.76-.17-.26,.05-.5,.2-.65,.42-1.11,1.62-2.49,3.02-4.1,4.18-.38,.28-.52,.78-.33,1.21l2.55,5.82c.18,.41,.62,.65,1.07,.59,.82-.13,1.62,.26,2.03,.97,.27,.46,.34,1,.2,1.52s-.47,.95-.93,1.21c-.96,.55-2.18,.22-2.73-.73-.41-.71-.34-1.6,.18-2.25,.28-.35,.29-.85,.02-1.22l-3.76-5.12c-.28-.38-.79-.51-1.22-.32-1.8,.81-3.71,1.3-5.67,1.45-.27,.02-.52,.15-.69,.35s-.26,.47-.23,.74l.45,4.54c.03,.33,.23,.63,.53,.79,1,.52,1.62,1.54,1.62,2.64,0,1.65-1.35,3-3,3s-3-1.35-3-3c0-1.11,.62-2.12,1.62-2.64,.3-.16,.5-.45,.53-.79l.45-4.54c.03-.27-.06-.54-.23-.74s-.42-.33-.69-.35c-1.97-.15-3.88-.64-5.67-1.45-.13-.06-.27-.09-.41-.09-.31,0-.61,.14-.81,.41l-3.76,5.12c-.27,.36-.26,.86,.02,1.22,.52,.65,.59,1.53,.18,2.25-.55,.95-1.78,1.28-2.73,.73-.46-.27-.79-.7-.93-1.21s-.07-1.06,.2-1.52c.41-.72,1.21-1.1,2.03-.97,.45,.07,.88-.17,1.07-.59l2.55-5.82c.19-.43,.05-.94-.33-1.21-1.61-1.16-2.99-2.56-4.1-4.18-.15-.22-.39-.37-.65-.42-.27-.05-.54,.02-.76,.17l-3.7,2.66c-.27,.2-.43,.52-.42,.85,.04,1.13-.52,2.17-1.48,2.72-.69,.4-1.5,.51-2.28,.3-.77-.21-1.42-.7-1.82-1.4-.83-1.43-.33-3.27,1.1-4.1,.96-.55,2.14-.52,3.1,.08,.28,.18,.64,.21,.95,.07l4.16-1.88c.25-.11,.44-.32,.53-.57s.08-.53-.04-.77c-.86-1.78-1.39-3.68-1.59-5.64-.05-.47-.42-.84-.88-.89l-6.31-.7c-.45-.06-.88,.21-1.04,.63-.3,.77-1.03,1.28-1.86,1.28-1.1,0-2-.9-2-2s.9-2,2-2c.83,0,1.55,.5,1.86,1.28,.17,.42,.59,.68,1.04,.63l6.31-.7c.47-.05,.84-.42,.88-.89,.2-1.96,.73-3.85,1.59-5.64,.12-.24,.13-.52,.04-.77s-.28-.46-.53-.57l-4.16-1.88c-.31-.14-.66-.11-.95,.07-.95,.6-2.14,.63-3.1,.08-1.43-.83-1.93-2.67-1.1-4.1,.4-.69,1.05-1.19,1.82-1.4,.77-.21,1.58-.1,2.28,.3,.96,.55,1.52,1.6,1.48,2.72-.01,.34,.14,.66,.42,.85l3.7,2.66c.22,.16,.49,.22,.76,.17,.26-.05,.5-.2,.65-.42,1.11-1.62,2.49-3.02,4.1-4.18,.38-.28,.52-.78,.33-1.21l-2.55-5.82c-.18-.41-.62-.65-1.07-.59-.82,.13-1.62-.26-2.03-.97-.27-.46-.34-1-.2-1.52s.47-.95,.93-1.21c.95-.55,2.18-.22,2.73,.73,.41,.71,.34,1.6-.18,2.25-.28,.35-.29,.85-.02,1.22l3.76,5.12c.28,.38,.78,.51,1.22,.32,1.8-.81,3.71-1.3,5.67-1.45,.27-.02,.52-.15,.69-.35s.26-.47,.23-.74l-.45-4.54c-.03-.33-.23-.63-.53-.79-1-.52-1.62-1.54-1.62-2.64,0-1.65,1.35-3,3-3s3,1.35,3,3c0,1.11-.62,2.12-1.62,2.64-.3,.16-.5,.45-.53,.79l-.45,4.54c-.03,.27,.06,.54,.23,.74s.42,.33,.69,.35c1.97,.15,3.88,.64,5.67,1.45,.43,.19,.94,.06,1.22-.32l3.76-5.12c.27-.36,.26-.86-.02-1.22-.52-.65-.59-1.53-.18-2.25,.55-.95,1.78-1.28,2.73-.73,.46,.27,.79,.7,.93,1.21s.07,1.06-.2,1.52c-.41,.71-1.21,1.1-2.03,.97-.44-.06-.88,.17-1.07,.59l-2.55,5.82c-.19,.43-.05,.94,.33,1.21,1.61,1.16,2.99,2.56,4.1,4.18,.15,.22,.39,.37,.65,.42,.26,.04,.54-.02,.76-.17l3.7-2.66c.27-.2,.43-.52,.42-.85-.04-1.13,.52-2.17,1.48-2.72,.69-.4,1.5-.51,2.28-.3,.77,.21,1.42,.7,1.82,1.4,.83,1.43,.33,3.27-1.1,4.1-.96,.55-2.14,.52-3.1-.08-.28-.18-.64-.2-.95-.07l-4.16,1.88c-.25,.11-.44,.32-.53,.57s-.08,.53,.04,.77c.86,1.78,1.39,3.68,1.59,5.64,.05,.47,.42,.84,.88,.89l6.31,.7c.45,.05,.88-.21,1.04-.63,.3-.77,1.03-1.28,1.86-1.28,1.1,0,2,.9,2,2s-.9,2-2,2Z"/></svg>