<?xml version="1.0" encoding="iso-8859-1"?>
<!-- Generator: Adobe Illustrator 19.1.0, SVG Export Plug-In . SVG Version: 6.00 Build 0)  -->
<svg version="1.1" id="Capa_1" xmlns="http://www.w3.org/2000/svg" xmlns:xlink="http://www.w3.org/1999/xlink" x="0px" y="0px"
	 viewBox="0 0 123.946 123.946" style="enable-background:new 0 0 123.946 123.946;" xml:space="preserve">
<g>
	<path d="M62.239,123.946c-21.505,0-36.523-11.771-36.523-28.626c0-2.933,0.504-5.789,1.496-8.489
		c0.129-0.33,2.943-7.49,6.496-11.805c0.001-0.002,3.342-4.44,4.746-11.447c1.666-9.237,11.895-16.225,23.785-16.225
		c0.828,0,1.5,0.671,1.5,1.5s-0.672,1.5-1.5,1.5c-10.462,0-19.42,5.927-20.838,13.786c-1.555,7.757-5.192,12.553-5.346,12.753
		c-3.283,3.988-6.011,10.931-6.038,11c-0.86,2.34-1.302,4.847-1.302,7.426c0,15.088,13.785,25.626,33.523,25.626
		c0.828,0,1.5,0.671,1.5,1.5S63.067,123.946,62.239,123.946z"/>
	<path d="M62.153,123.946c-0.828,0-1.5-0.671-1.5-1.5s0.672-1.5,1.5-1.5c19.738,0,33.523-10.538,33.523-25.626
		c0-2.579-0.441-5.086-1.312-7.453c-0.017-0.042-2.75-6.993-5.996-10.934c-0.185-0.24-3.822-5.036-5.371-12.764
		c-1.424-7.888-10.382-13.815-20.844-13.815c-0.828,0-1.5-0.671-1.5-1.5s0.672-1.5,1.5-1.5c11.891,0,22.119,6.988,23.791,16.254
		c1.407,7.022,4.737,11.414,4.771,11.458c3.521,4.276,6.336,11.436,6.454,11.739c1.003,2.727,1.507,5.583,1.507,8.516
		C98.676,112.174,83.658,123.946,62.153,123.946z"/>
	<path d="M42.607,85.027c-0.485,0-0.979-0.083-1.461-0.258c-1.077-0.393-1.937-1.18-2.42-2.219
		c-0.483-1.038-0.533-2.202-0.141-3.278c0.81-2.218,3.275-3.364,5.493-2.561c2.221,0.811,3.369,3.275,2.562,5.495
		c-0.001,0-0.001,0-0.001,0.001C46.006,83.945,44.358,85.027,42.607,85.027z M42.616,79.454c-0.525,0-1.021,0.325-1.212,0.847
		c-0.118,0.323-0.103,0.672,0.042,0.983c0.146,0.312,0.403,0.548,0.727,0.666c0.668,0.243,1.406-0.103,1.649-0.77
		c0.242-0.667-0.103-1.406-0.769-1.649C42.909,79.479,42.761,79.454,42.616,79.454z"/>
	<path d="M47.223,87.845c-0.157,0-0.317-0.025-0.475-0.078c-0.786-0.262-1.21-1.112-0.948-1.897
		c0.566-1.698,0.562-3.115-0.012-4.213c-0.784-1.498-2.396-2.006-2.413-2.011c-0.795-0.233-1.251-1.066-1.018-1.861
		s1.068-1.25,1.861-1.018c0.115,0.034,2.847,0.859,4.228,3.499c0.966,1.848,1.033,4.052,0.199,6.553
		C48.436,87.447,47.851,87.845,47.223,87.845z"/>
	<path d="M81.747,85.027c-1.752,0-3.399-1.082-4.033-2.82c0,0,0,0-0.001-0.001c-0.807-2.22,0.342-4.684,2.561-5.494
		c2.216-0.805,4.686,0.341,5.495,2.56c0.393,1.076,0.343,2.24-0.141,3.278c-0.483,1.039-1.343,1.826-2.419,2.218
		C82.727,84.944,82.233,85.027,81.747,85.027z M80.533,81.18c0.243,0.667,0.983,1.012,1.65,0.769
		c0.322-0.118,0.58-0.354,0.726-0.666c0.145-0.312,0.16-0.661,0.042-0.983c-0.243-0.667-0.987-1.012-1.651-0.769
		C80.635,79.774,80.29,80.514,80.533,81.18z"/>
	<path d="M77.131,87.845c-0.628,0-1.213-0.397-1.423-1.026c-0.834-2.5-0.767-4.705,0.199-6.553c1.381-2.64,4.112-3.465,4.228-3.499
		c0.792-0.234,1.629,0.223,1.861,1.018c0.231,0.792-0.219,1.621-1.008,1.858c-0.051,0.016-1.672,0.548-2.437,2.04
		c-0.561,1.094-0.56,2.502,0.002,4.187c0.262,0.786-0.162,1.635-0.948,1.897C77.449,87.82,77.288,87.845,77.131,87.845z"/>
	<path d="M42.406,58.958c-0.354,0-0.708-0.124-0.993-0.377c-3.133-2.773-6.778-5.6-10.304-8.334
		c-5.725-4.439-11.644-9.029-15.879-13.75C2.36,22.153,0.938,13.03,1.236,8.868C1.424,6.23,2.397,4.051,3.973,2.732
		c1.411-1.179,3.383-1.637,5.706-1.326c7.279,0.978,16.788,8.99,25.436,21.432c5.543,7.973,8.889,16.329,12.43,25.175
		c0.544,1.359,1.095,2.734,1.66,4.127c0.312,0.768-0.058,1.642-0.825,1.954c-0.769,0.312-1.644-0.059-1.954-0.825
		c-0.568-1.397-1.12-2.777-1.666-4.141c-3.476-8.684-6.76-16.886-12.107-24.578C23.025,10.7,14.266,5.049,9.28,4.38
		C8.257,4.243,6.841,4.244,5.898,5.033c-0.946,0.792-1.54,2.23-1.67,4.049C4.016,12.051,4.88,20.469,17.462,34.493
		c4.055,4.52,9.865,9.025,15.485,13.383c3.563,2.763,7.248,5.621,10.453,8.458c0.62,0.549,0.678,1.497,0.129,2.117
		C43.234,58.787,42.821,58.958,42.406,58.958z"/>
	<path d="M43.471,57.402c-0.604,0-1.174-0.368-1.402-0.967C27.3,17.605,3.217,12.922,2.975,12.879
		C2.16,12.735,1.616,11.956,1.76,11.14c0.144-0.815,0.919-1.359,1.738-1.215c1.055,0.187,26.007,5.038,41.375,45.443
		c0.294,0.774-0.095,1.641-0.869,1.935C43.828,57.37,43.649,57.402,43.471,57.402z"/>
	<path d="M81.54,57.647c-0.415,0-0.827-0.171-1.124-0.505c-0.549-0.621-0.491-1.568,0.129-2.118
		c3.206-2.839,6.892-5.697,10.456-8.461c5.618-4.357,11.428-8.862,15.482-13.381c12.582-14.024,13.446-22.442,13.234-25.411
		c-0.13-1.819-0.724-3.257-1.671-4.05c-0.942-0.79-2.361-0.792-3.38-0.653c-4.987,0.669-13.746,6.32-23.373,20.17
		c-5.348,7.692-8.632,15.895-12.107,24.578c-0.546,1.364-1.098,2.744-1.666,4.141c-0.312,0.767-1.186,1.139-1.954,0.825
		c-0.768-0.312-1.137-1.187-0.825-1.954c0.565-1.393,1.116-2.768,1.66-4.127c3.541-8.847,6.887-17.203,12.43-25.176
		c8.647-12.442,18.157-20.454,25.437-21.432c2.32-0.31,4.295,0.146,5.704,1.326c1.577,1.319,2.55,3.499,2.738,6.137
		c0.298,4.161-1.124,13.284-13.994,27.628c-4.234,4.72-10.153,9.31-15.877,13.749c-3.526,2.734-7.172,5.562-10.306,8.336
		C82.248,57.523,81.894,57.647,81.54,57.647z"/>
	<path d="M80.475,56.09c-0.178,0-0.357-0.032-0.533-0.099c-0.774-0.294-1.163-1.161-0.869-1.935
		C94.441,13.651,119.393,8.8,120.448,8.613c0.819-0.141,1.595,0.4,1.738,1.215c0.145,0.815-0.397,1.592-1.212,1.738
		c-0.259,0.047-24.387,4.88-39.097,43.556C81.649,55.721,81.079,56.09,80.475,56.09z"/>
	<path d="M57.655,122.921c-0.392,0-0.783-0.153-1.077-0.457c-0.577-0.595-0.562-1.544,0.033-2.121l4.169-4.037v-7.911l-5.795-3.917
		c-0.687-0.464-0.867-1.396-0.403-2.083c0.464-0.688,1.398-0.867,2.083-0.403l6.455,4.364c0.413,0.279,0.66,0.745,0.66,1.243v9.342
		c0,0.406-0.165,0.795-0.456,1.078l-4.625,4.479C58.407,122.78,58.031,122.921,57.655,122.921z"/>
	<path d="M49.316,122.183c-0.135,0-0.271-0.018-0.407-0.057c-5.595-1.572-9.671-7.548-9.28-13.604
		c0.28-4.383,2.669-8.113,6.234-9.733c0.755-0.342,1.644-0.008,1.985,0.745c0.343,0.754,0.01,1.644-0.745,1.986
		c-2.554,1.161-4.271,3.917-4.48,7.194c-0.298,4.62,2.886,9.34,7.099,10.524c0.797,0.224,1.262,1.052,1.038,1.85
		C50.573,121.75,49.971,122.183,49.316,122.183z"/>
	<path d="M18.216,114.628c-0.807,0-1.474-0.642-1.498-1.454c-0.025-0.828,0.625-1.52,1.453-1.545l27.919-0.857L8.197,96.512
		C7.421,96.22,7.03,95.355,7.321,94.58c0.292-0.775,1.159-1.167,1.933-0.875l44.99,16.93c0.67,0.252,1.068,0.943,0.951,1.649
		s-0.718,1.232-1.434,1.254l-35.498,1.09C18.247,114.628,18.232,114.628,18.216,114.628z"/>
	<path d="M66.823,122.921c-0.376,0-0.752-0.14-1.044-0.422l-4.625-4.479c-0.291-0.283-0.456-0.671-0.456-1.078v-9.342
		c0-0.498,0.247-0.964,0.66-1.243l6.455-4.364c0.685-0.465,1.619-0.284,2.083,0.403c0.464,0.686,0.283,1.619-0.403,2.083
		l-5.795,3.917v7.911l4.169,4.037c0.595,0.577,0.61,1.526,0.033,2.121C67.606,122.768,67.214,122.921,66.823,122.921z"/>
	<path d="M75.161,122.183c-0.655,0-1.257-0.433-1.443-1.095c-0.224-0.797,0.241-1.625,1.038-1.85
		c4.213-1.184,7.396-5.905,7.099-10.523c-0.209-3.277-1.927-6.034-4.48-7.195c-0.755-0.343-1.088-1.232-0.745-1.986
		c0.343-0.753,1.23-1.087,1.985-0.745c3.565,1.62,5.954,5.35,6.234,9.734c0.391,6.055-3.686,12.031-9.28,13.604
		C75.433,122.165,75.296,122.183,75.161,122.183z"/>
	<path d="M106.261,114.628c-0.016,0-0.031,0-0.047,0l-35.498-1.09c-0.716-0.022-1.316-0.547-1.434-1.254s0.281-1.397,0.951-1.649
		l44.99-16.93c0.773-0.292,1.641,0.1,1.933,0.875c0.291,0.775-0.101,1.641-0.876,1.932l-37.894,14.259l27.919,0.857
		c0.828,0.026,1.479,0.717,1.453,1.545C107.735,113.986,107.068,114.628,106.261,114.628z"/>
</g>
<g>
</g>
<g>
</g>
<g>
</g>
<g>
</g>
<g>
</g>
<g>
</g>
<g>
</g>
<g>
</g>
<g>
</g>
<g>
</g>
<g>
</g>
<g>
</g>
<g>
</g>
<g>
</g>
<g>
</g>
</svg>
